HIERARCHY
ROOT Hips
{
	OFFSET 0.00000 0.00000 0.00000
	CHANNELS 6 Xposition Yposition Zposition Zrotation Yrotation Xrotation 
	JOINT LHipJoint
	{
		OFFSET 0 0 0
		CHANNELS 3 Zrotation Yrotation Xrotation
		JOINT LeftUpLeg
		{
			OFFSET 1.57314 -1.85774 0.63783
			CHANNELS 3 Zrotation Yrotation Xrotation
			JOINT LeftLeg
			{
				OFFSET 2.57982 -7.08799 0.00000
				CHANNELS 3 Zrotation Yrotation Xrotation
				JOINT LeftFoot
				{
					OFFSET 2.63993 -7.25315 0.00000
					CHANNELS 3 Zrotation Yrotation Xrotation
					JOINT LeftToeBase
					{
						OFFSET 0.16864 -0.46332 2.12791
						CHANNELS 3 Zrotation Yrotation Xrotation
						End Site
						{
							OFFSET 0.00000 -0.00000 1.09718
						}
					}
				}
			}
		}
	}
	JOINT RHipJoint
	{
		OFFSET 0 0 0
		CHANNELS 3 Zrotation Yrotation Xrotation
		JOINT RightUpLeg
		{
			OFFSET -1.56006 -1.85774 0.63784
			CHANNELS 3 Zrotation Yrotation Xrotation
			JOINT RightLeg
			{
				OFFSET -2.54246 -6.98536 0.00000
				CHANNELS 3 Zrotation Yrotation Xrotation
				JOINT RightFoot
				{
					OFFSET -2.65791 -7.30256 0.00000
					CHANNELS 3 Zrotation Yrotation Xrotation
					JOINT RightToeBase
					{
						OFFSET -0.18435 -0.50650 2.16316
						CHANNELS 3 Zrotation Yrotation Xrotation
						End Site
						{
							OFFSET -0.00000 -0.00000 1.11780
						}
					}
				}
			}
		}
	}
	JOINT LowerBack
	{
		OFFSET 0 0 0
		CHANNELS 3 Zrotation Yrotation Xrotation
		JOINT Spine
		{
			OFFSET -0.00136 1.92812 -0.29638
			CHANNELS 3 Zrotation Yrotation Xrotation
			JOINT Spine1
			{
				OFFSET -0.00528 1.96223 -0.02928
				CHANNELS 3 Zrotation Yrotation Xrotation
				JOINT Neck
				{
					OFFSET 0 0 0
					CHANNELS 3 Zrotation Yrotation Xrotation
					JOINT Neck1
					{
						OFFSET -0.01015 1.75586 0.07797
						CHANNELS 3 Zrotation Yrotation Xrotation
						JOINT Head
						{
							OFFSET 0.05540 1.72452 0.04558
							CHANNELS 3 Zrotation Yrotation Xrotation
							End Site
							{
								OFFSET 0.02170 1.79958 0.00864
							}
						}
					}
				}
				JOINT LeftShoulder
				{
					OFFSET 0 0 0
					CHANNELS 3 Zrotation Yrotation Xrotation
					JOINT LeftArm
					{
						OFFSET 3.16292 1.29277 -0.65728
						CHANNELS 3 Zrotation Yrotation Xrotation
						JOINT LeftForeArm
						{
							OFFSET 5.52302 -0.00000 -0.00000
							CHANNELS 3 Zrotation Yrotation Xrotation
							JOINT LeftHand
							{
								OFFSET 3.58675 -0.00000 -0.00000
								CHANNELS 3 Zrotation Yrotation Xrotation
								JOINT LeftFingerBase
								{
									OFFSET 0 0 0
									CHANNELS 3 Zrotation Yrotation Xrotation
									JOINT LeftHandIndex1
									{
										OFFSET 0.53641 -0.00000 -0.00000
										CHANNELS 3 Zrotation Yrotation Xrotation
										End Site
										{
											OFFSET 0.43247 -0.00000 -0.00000
										}
									}
								}
								JOINT LThumb
								{
									OFFSET 0 0 0
									CHANNELS 3 Zrotation Yrotation Xrotation
									End Site
									{
										OFFSET 0.43907 -0.00000 0.43907
									}
								}
							}
						}
					}
				}
				JOINT RightShoulder
				{
					OFFSET 0 0 0
					CHANNELS 3 Zrotation Yrotation Xrotation
					JOINT RightArm
					{
						OFFSET -3.08296 1.43376 -0.52927
						CHANNELS 3 Zrotation Yrotation Xrotation
						JOINT RightForeArm
						{
							OFFSET -5.84780 -0.00000 0.00000
							CHANNELS 3 Zrotation Yrotation Xrotation
							JOINT RightHand
							{
								OFFSET -3.62717 -0.00000 -0.00000
								CHANNELS 3 Zrotation Yrotation Xrotation
								JOINT RightFingerBase
								{
									OFFSET 0 0 0
									CHANNELS 3 Zrotation Yrotation Xrotation
									JOINT RightHandIndex1
									{
										OFFSET -0.65052 -0.00000 -0.00000
										CHANNELS 3 Zrotation Yrotation Xrotation
										End Site
										{
											OFFSET -0.52446 -0.00000 -0.00000
										}
									}
								}
								JOINT RThumb
								{
									OFFSET 0 0 0
									CHANNELS 3 Zrotation Yrotation Xrotation
									End Site
									{
										OFFSET -0.53247 -0.00000 0.53247
									}
								}
							}
						}
					}
				}
			}
		}
	}
}
MOTION
Frames: 11
Frame Time: .0083333
0.3516 18.1579 4.7819 -6.1722 -4.6053 5.4012 0.0000 0.0000 0.0000 -5.9406 -11.1087 -51.2925 17.6380 19.8657 83.0792 -0.0127 -5.6418 7.6637 0.4820 -4.4521 -12.3521 0.0000 0.0000 0.0000 31.0843 0.2083 25.0306 -0.1143 -2.1797 6.0026 -1.0660 -9.4593 18.6165 -0.0384 -1.2649 3.4779 7.9936 1.5655 14.6758 0.1160 3.3979 0.8369 -5.0751 1.4041 -6.8879 -0.6973 -0.5372 -7.4167 0.1547 -0.6628 -8.7607 0.1567 -0.3098 -1.4785 -0.0000 -0.0000 0.0000 -88.7901 30.9254 33.8032 116.6360 -57.1417 -82.8461 -0.0000 0.0000 -26.4580 37.3584 8.8274 6.6818 -7.1250 0.0000 -0.0000 9.2709 40.8599 -0.9558 -0.0000 -0.0000 0.0000 82.4552 13.4862 40.3614 -126.2903 54.3864 -90.8358 0.0000 -0.0000 -7.1373 -37.0910 25.8667 -18.2550 7.1250 -0.0000 -0.0000 -4.2989 1.2346 -4.4028
0.3391 18.2546 5.3538 -5.9777 -3.4102 5.1074 0.0000 0.0000 0.0000 -6.1189 -12.7835 -50.5450 15.9266 19.5974 78.0129 -0.0107 -5.7711 7.9185 0.4999 -4.5329 -12.5810 0.0000 0.0000 0.0000 30.3108 -1.8061 29.0790 0.0000 -0.0000 0.0000 -1.9338 -13.1502 25.2591 -0.1811 -2.7409 7.5583 8.0040 1.3698 14.7112 0.0155 3.1489 0.6364 -5.1509 1.2629 -7.1542 -0.6707 -0.7482 -6.8039 0.2012 -0.9478 -8.6516 0.1667 -0.4536 -1.5435 -0.0000 0.0000 0.0000 -88.9348 32.1863 33.2855 116.9276 -57.0746 -83.0910 -0.0000 0.0000 -26.2646 37.4707 9.0193 6.8520 -7.1250 0.0000 -0.0000 9.3852 41.1081 -0.9098 -0.0000 0.0000 0.0000 82.0969 12.9648 40.7356 -127.3540 54.0085 -91.6986 0.0000 -0.0000 -6.5833 -37.8762 26.5236 -19.1544 7.1250 -0.0000 -0.0000 -4.6122 2.2321 -4.8037
0.3257 18.3460 5.9102 -6.2431 -2.1402 4.8405 0.0000 0.0000 0.0000 -5.7525 -14.3348 -49.7567 14.1668 19.1638 72.7133 0.0046 -5.8878 8.5288 0.4503 -4.3051 -11.9367 0.0000 0.0000 0.0000 30.6179 -2.8714 29.9352 0.0000 -0.0000 0.0000 -2.6119 -15.1124 29.4521 -0.3818 -3.9683 10.9876 8.4107 1.0673 15.0401 0.0692 2.8672 0.4004 -5.2915 1.0826 -7.6208 -0.6099 -0.9061 -6.5852 0.1627 -1.1649 -8.2838 0.1431 -0.5640 -1.4622 -0.0000 -0.0000 0.0000 -89.0621 33.2085 32.8146 117.0392 -57.0486 -83.1847 -0.0000 0.0000 -26.1369 36.9540 8.4676 6.3212 -7.1250 0.0000 -0.0000 8.8848 40.3758 -1.0222 -0.0000 -0.0000 0.0000 81.7374 12.3933 41.1935 -128.3685 53.6327 -92.5174 0.0000 -0.0000 -6.1080 -38.7832 27.0686 -20.0853 7.1250 -0.0000 -0.0000 -5.0106 3.1549 -5.2986
0.3178 18.4301 6.4735 -6.5914 -1.3348 4.8411 0.0000 0.0000 0.0000 -5.3188 -15.4371 -49.0822 12.3855 18.5489 67.2056 0.0296 -5.8925 9.1924 0.4086 -4.1035 -11.3681 0.0000 0.0000 0.0000 31.0115 -3.4078 30.7900 0.0000 0.0000 -0.0000 -3.3659 -16.2461 33.4717 -0.6530 -5.1690 14.3911 8.8389 0.9190 14.9740 0.1456 2.7587 0.1702 -5.4325 0.9976 -7.8375 -0.5801 -0.9609 -6.5276 0.0685 -1.2436 -7.8260 0.1071 -0.6039 -1.3272 -0.0000 0.0000 0.0000 -89.2048 34.0868 32.3901 117.4589 -56.9499 -83.5366 -0.0000 0.0000 -26.0603 36.6314 8.9195 6.5760 -7.1250 0.0000 -0.0000 8.6233 40.8943 -0.8805 -0.0000 0.0000 0.0000 81.3922 11.8201 41.8073 -129.2390 53.2978 -93.2169 0.0000 -0.0000 -5.2480 -38.5384 26.3444 -19.4671 7.1250 -0.0000 -0.0000 -5.0335 2.2467 -5.2469
0.3100 18.5008 7.0413 -6.6396 -0.7687 5.0357 0.0000 0.0000 0.0000 -5.2878 -16.1281 -48.4086 10.6371 17.7529 61.5973 0.0384 -5.9517 9.4847 0.5735 -4.8496 -13.4800 0.0000 0.0000 0.0000 31.1424 -3.7196 31.6962 0.0000 0.0000 -0.0000 -4.0024 -16.3805 36.5031 -0.8008 -5.7114 15.9494 8.8493 0.8727 14.6622 0.1996 2.6801 0.0311 -5.3537 0.9570 -7.8286 -0.7212 -1.0001 -7.1788 -0.0037 -1.2827 -6.9462 0.1003 -0.6217 -0.9461 0.0000 -0.0000 0.0000 -89.4773 34.7646 31.9908 118.3083 -56.7441 -84.2477 -0.0000 0.0000 -25.9501 37.5674 10.1835 7.7444 -7.1250 0.0000 -0.0000 9.5516 42.5493 -0.5834 0.0000 -0.0000 0.0000 80.9714 11.6016 42.2961 -129.0047 53.3891 -93.0290 0.0000 -0.0000 -4.1951 -41.8648 29.1135 -23.5577 7.1250 -0.0000 -0.0000 -6.2431 6.6147 -6.9600
0.3036 18.5568 7.6014 -6.5607 -0.4251 5.1977 0.0000 0.0000 0.0000 -5.5498 -16.3898 -47.4515 8.9819 16.7961 56.0276 0.0444 -5.8997 9.5615 0.8428 -5.8557 -16.3662 0.0000 0.0000 0.0000 31.1650 -3.8971 32.7654 0.0000 0.0000 -0.0000 -4.1720 -16.3641 37.2756 -0.6467 -5.1443 14.3206 8.7117 0.9072 14.4393 0.2105 2.6837 -0.0186 -5.2563 0.9667 -7.7627 -0.7797 -1.1433 -8.0168 -0.2441 -1.4654 -6.0838 0.0257 -0.7146 -0.5498 -0.0000 0.0000 0.0000 -89.6311 35.0069 31.8256 119.0100 -56.5680 -84.8339 -0.0000 0.0000 -26.0267 39.2245 11.3961 9.1624 -7.1250 0.0000 -0.0000 11.1935 44.2725 -0.2036 -0.0000 0.0000 0.0000 80.5960 11.3269 42.9149 -129.2782 53.2825 -93.2483 0.0000 -0.0000 -4.0194 -42.8538 29.7424 -24.7147 7.1250 -0.0000 -0.0000 -6.6204 7.7277 -7.4976
0.3017 18.6018 8.1582 -6.8581 -0.4175 5.3725 0.0000 0.0000 0.0000 -5.5285 -16.1089 -46.3607 7.4736 15.7181 50.6437 0.0917 -5.5678 10.2358 0.7691 -5.5999 -15.6280 0.0000 0.0000 0.0000 31.6132 -3.7656 33.9397 0.0000 0.0000 -0.0000 -3.8433 -16.0352 35.7343 -0.1052 -2.0913 5.7579 8.9709 1.0105 14.0812 0.2322 2.8266 0.0059 -5.3893 1.0412 -7.5019 -0.6216 -1.2109 -8.0018 -0.4673 -1.5743 -6.2008 -0.0684 -0.7715 -0.5906 -0.0000 0.0000 0.0000 -89.5804 34.8529 31.7850 119.4616 -56.4517 -85.2105 -0.0000 0.0000 -26.0746 39.6600 12.0628 9.8292 -7.1250 0.0000 -0.0000 11.6709 45.1676 0.0489 -0.0000 0.0000 0.0000 80.4285 11.0990 43.5106 -129.6476 53.1366 -93.5442 0.0000 -0.0000 -3.7843 -43.2735 30.2886 -25.4003 7.1250 -0.0000 -0.0000 -6.7007 8.5221 -7.6685
0.2979 18.6395 8.7127 -7.2203 -0.6209 5.3649 0.0000 0.0000 0.0000 -5.4494 -15.7023 -44.9399 6.1274 14.5506 45.4908 0.1805 -4.5483 10.9965 0.4958 -4.5144 -12.5284 0.0000 0.0000 0.0000 33.3405 -2.0912 30.3123 -0.3064 -3.5586 9.8381 -3.3702 -15.0740 33.3729 -0.7242 -5.4376 15.1609 9.1101 1.1012 13.9648 0.3542 2.9601 0.1065 -5.3526 1.1168 -7.3061 -0.6758 -1.0949 -7.8282 -0.5084 -1.4214 -6.6774 -0.0668 -0.6911 -0.7636 -0.0000 0.0000 0.0000 -89.8378 34.5808 31.6064 119.9852 -56.3139 -85.6466 -0.0000 0.0000 -25.9571 39.4570 11.5458 9.3549 -7.1250 0.0000 -0.0000 11.4283 44.4931 -0.1449 -0.0000 0.0000 0.0000 80.1909 11.0960 44.1755 -129.5336 53.1819 -93.4529 0.0000 -0.0000 -3.2665 -43.7120 30.7098 -26.0231 7.1250 -0.0000 -0.0000 -6.8211 9.1846 -7.8740
0.2949 18.6569 9.2575 -7.8630 -0.6583 5.1577 0.0000 0.0000 0.0000 -5.1744 -15.2936 -43.3290 4.9945 13.3776 40.7987 0.2228 -3.7495 11.1058 0.5320 -4.6737 -12.9803 0.0000 0.0000 0.0000 34.7125 -1.2103 28.9747 -0.7524 -5.5401 15.4558 -3.1010 -14.8423 31.9965 -1.0719 -6.5814 18.4810 9.5833 1.0912 14.2842 0.5395 3.0710 0.1495 -5.4535 1.1519 -7.4101 -0.7637 -1.0341 -8.2923 -0.4900 -1.3255 -6.3621 -0.0491 -0.6433 -0.5934 -0.0000 0.0000 0.0000 -89.8884 34.4004 31.6888 120.6324 -56.1391 -86.1846 -0.0000 0.0000 -25.9680 39.6795 10.9329 8.9418 -7.1250 0.0000 -0.0000 11.5809 43.7614 -0.3591 -0.0000 0.0000 0.0000 80.0064 10.7098 44.7543 -129.4109 53.2303 -93.3547 0.0000 -0.0000 -2.9442 -44.1778 31.2406 -26.7462 7.1250 -0.0000 -0.0000 -6.9211 9.9850 -8.0703
0.2904 18.6671 9.8039 -8.2440 -0.6557 4.9326 0.0000 0.0000 0.0000 -5.2145 -14.9736 -41.6027 4.0770 12.2621 36.6656 0.2132 -3.2852 10.5696 0.7485 -5.5263 -15.4159 0.0000 0.0000 0.0000 35.6912 -0.4352 27.8766 -1.3197 -7.2757 20.5348 -2.8166 -15.3302 30.5746 -1.1614 -6.8417 19.2471 9.7800 1.0715 14.3060 0.6702 3.0759 0.3513 -5.4192 1.1678 -7.1994 -0.7006 -0.9815 -8.6883 -0.6216 -1.2586 -6.2229 -0.1003 -0.6125 -0.4902 -0.0000 0.0000 0.0000 -89.9694 33.8318 31.7373 120.9329 -56.0562 -86.4340 -0.0000 0.0000 -25.9189 39.2070 10.4744 8.4358 -7.1250 0.0000 -0.0000 11.0942 43.1233 -0.5207 -0.0000 0.0000 0.0000 79.9053 10.2748 45.2276 -129.1564 53.3301 -93.1506 0.0000 -0.0000 -2.4412 -44.5224 31.8615 -27.4356 7.1250 -0.0000 -0.0000 -6.9254 10.8346 -8.1578
0.2848 18.6628 10.3496 -8.5292 -0.8307 4.8250 0.0000 0.0000 0.0000 -5.3705 -14.4221 -40.0572 3.3850 11.2936 33.2765 0.1750 -3.0284 9.6196 1.3793 -7.4316 -21.0004 0.0000 0.0000 0.0000 36.0152 -0.3707 26.4451 -2.0180 -8.9035 25.4938 -2.7082 -15.6598 30.0443 -1.1481 -6.8036 19.1349 9.7352 1.1272 14.0690 0.8237 3.1064 0.6287 -5.2150 1.2198 -6.7703 -0.6739 -0.8670 -8.6041 -0.6944 -1.1152 -6.7458 -0.1221 -0.5382 -0.6635 0.0000 0.0000 0.0000 -90.0501 32.9344 31.8968 121.0130 -56.0339 -86.5005 -0.0000 0.0000 -25.8936 39.1275 10.6589 8.5567 -7.1250 0.0000 -0.0000 11.0366 43.3423 -0.4574 0.0000 0.0000 0.0000 79.8135 9.8796 45.5688 -128.5289 53.5718 -92.6466 0.0000 -0.0000 -1.9863 -44.7677 32.3391 -27.9508 7.1250 -0.0000 -0.0000 -6.9146 11.4785 -8.2059
